<?xml version="1.0" encoding="UTF-8" standalone="no"?>
<svg
   width="100%"
   height="100%"
   viewBox="0 0 25 25"
   version="1.1"
   xml:space="preserve"
   style="fill-rule:evenodd;clip-rule:evenodd;stroke-linejoin:round;stroke-miterlimit:2;"
   id="svg5"
   sodipodi:docname="class-icon-csharp.svg"
   inkscape:version="1.3.2 (091e20e, 2023-11-25, custom)"
   inkscape:export-filename="class-icon-csharp.png"
   inkscape:export-xdpi="491.51999"
   inkscape:export-ydpi="491.51999"
   xmlns:inkscape="http://www.inkscape.org/namespaces/inkscape"
   xmlns:sodipodi="http://sodipodi.sourceforge.net/DTD/sodipodi-0.dtd"
   xmlns="http://www.w3.org/2000/svg"
   xmlns:svg="http://www.w3.org/2000/svg"><defs
   id="defs5" /><sodipodi:namedview
   id="namedview5"
   pagecolor="#ffffff"
   bordercolor="#000000"
   borderopacity="0.25"
   inkscape:showpageshadow="2"
   inkscape:pageopacity="0.0"
   inkscape:pagecheckerboard="0"
   inkscape:deskcolor="#d1d1d1"
   showguides="true"
   inkscape:zoom="16"
   inkscape:cx="12.90625"
   inkscape:cy="10.84375"
   inkscape:window-width="1920"
   inkscape:window-height="1017"
   inkscape:window-x="-8"
   inkscape:window-y="-8"
   inkscape:window-maximized="1"
   inkscape:current-layer="svg5"><sodipodi:guide
     position="12.500016,0.999958"
     orientation="0,-1"
     id="guide6"
     inkscape:locked="false" /><sodipodi:guide
     position="24,0.999958"
     orientation="-1,0"
     id="guide7"
     inkscape:locked="false"
     inkscape:label=""
     inkscape:color="rgb(0,134,229)" /><sodipodi:guide
     position="23.5,1.5"
     orientation="-1,0"
     id="guide1"
     inkscape:locked="false"
     inkscape:label=""
     inkscape:color="rgb(0,134,229)" /><sodipodi:guide
     position="23.5,1.5"
     orientation="0,1"
     id="guide2"
     inkscape:locked="false"
     inkscape:label=""
     inkscape:color="rgb(0,134,229)" /></sodipodi:namedview>
    <g
   transform="matrix(0.268293,0,0,0.255556,-0.914634,-0.277778)"
   id="g1">
        <path
   id="path1"
   style="fill:rgb(191,244,196);fill-rule:nonzero;"
   d="M 41.599027 4.9999922 C 30.399038 4.9999922 21.302886 14.098881 21.302886 25.29887 L 21.302886 66.301686 C 21.302886 82.10167 34.099956 94.999836 49.99994 94.999836 C 65.899924 94.999836 78.696995 82.10167 78.696995 66.301686 L 78.696995 45.292042 C 78.488861 45.407873 78.254791 45.47484 78.005412 45.475465 L 75.297318 45.475465 C 74.384641 45.473438 73.687842 44.618797 73.826794 43.6718 L 74.744052 37.305473 L 72.996895 37.305473 L 72.996895 66.301686 C 72.996895 79.001673 62.699928 89.298419 49.99994 89.298419 C 37.299953 89.298419 27.002986 79.001673 27.002986 66.301686 L 27.002986 25.29887 C 27.002986 17.298878 33.499035 10.701409 41.599027 10.701409 L 58.400854 10.701409 C 62.71786 10.701409 66.614202 12.607696 69.298746 15.623275 L 69.589939 13.338123 C 69.687869 12.559749 70.319881 11.977948 71.067742 11.977731 L 73.681198 11.977731 C 69.958054 7.7118513 64.49923 4.9999922 58.400854 4.9999922 L 41.599027 4.9999922 z M 75.2318 13.949535 L 74.467419 19.971943 L 77.037195 19.971943 L 77.299269 17.931356 C 76.749114 16.524281 76.066765 15.184013 75.2318 13.949535 z M 73.550161 26.475838 L 72.996895 30.534085 L 72.996895 30.801578 L 75.530272 30.801578 L 76.119938 26.475838 L 73.550161 26.475838 z " />
    </g>
    <g
   transform="matrix(0.268293,0,0,0.255556,-0.914634,-0.277778)"
   id="g2">
        <path
   d="M50,52.5C49.7,52.5 49.3,52.4 49,52.2L40.2,46C39.4,45.5 39.2,44.4 39.8,43.6C40.3,42.8 41.4,42.6 42.2,43.2L50,48.7L57.8,43.2C58.6,42.7 59.6,42.8 60.2,43.6C60.7,44.4 60.6,45.4 59.8,46L51,52.2C50.7,52.4 50.3,52.5 50,52.5Z"
   style="fill:rgb(191,244,196);fill-rule:nonzero;"
   id="path2" />
    </g>
    <g
   transform="matrix(0.268293,0,0,0.255556,-0.914634,-0.277778)"
   id="g3">
        <path
   d="M50.1,65.8C49.8,65.8 49.4,65.7 49.1,65.5L40.3,59.3C39.5,58.8 39.3,57.7 39.9,56.9C40.4,56.1 41.5,55.9 42.3,56.5L50.1,62L57.9,56.5C58.7,56 59.7,56.1 60.3,56.9C60.8,57.7 60.7,58.7 59.9,59.3L51.1,65.5C50.8,65.7 50.5,65.8 50.1,65.8Z"
   style="fill:rgb(191,244,196);fill-rule:nonzero;"
   id="path3" />
    </g>
    <g
   transform="matrix(0.268293,0,0,0.255556,-0.914634,-0.277778)"
   id="g4">
        <path
   d="M50,78.8C49.7,78.8 49.3,78.7 49,78.5L40.2,72.3C39.4,71.8 39.2,70.7 39.8,69.9C40.4,69.1 41.4,68.9 42.2,69.5L50,75L57.8,69.5C58.6,69 59.6,69.1 60.2,69.9C60.7,70.7 60.6,71.7 59.8,72.3L51,78.5C50.7,78.7 50.3,78.8 50,78.8Z"
   style="fill:rgb(191,244,196);fill-rule:nonzero;"
   id="path4" />
    </g>
    <g
   transform="matrix(0.268293,0,0,0.255556,-0.914634,-0.277778)"
   id="g5"
   style="display:inline">
        <path
   d="m 50,36.3 c -1.9,0 -3.4,-1.5 -3.4,-3.4 v -7.5 c 0,-1.9 1.5,-3.4 3.4,-3.4 1.9,0 3.4,1.5 3.4,3.4 v 7.5 c 0,1.9 -1.5,3.4 -3.4,3.4 z"
   style="fill:#bff4c4;fill-rule:nonzero"
   id="path5" />
    </g>
<path
   d="m 9.078,7.177 q 0,-1.9965 1.134376,-3.130875 Q 11.074501,3.184 12.435751,3.184 q 1.36125,0 2.132625,0.771375 0.81675,0.81675 0.862125,2.08725 h -1.089 q -0.09075,-0.952875 -0.589875,-1.451998 -0.5445,-0.544502 -1.315875,-0.544502 -0.81675,0 -1.452,0.63525 -0.81675,0.816752 -0.81675,2.495625 0,1.678876 0.81675,2.495625 0.589875,0.589877 1.452,0.589877 0.9075,0 1.406625,-0.499127 0.63525,-0.635248 0.63525,-1.814999 h 1.089 q -0.04537,1.542749 -0.9075,2.404876 -0.771375,0.771375 -2.223375,0.771375 -1.36125,0 -2.223375,-0.862124 Q 9.078,9.128127 9.078,7.177 Z M 20.104126,5.225875 20.376376,3.184 h 0.725999 L 20.830126,5.225875 H 21.69225 V 6.088 h -0.998249 l -0.27225,1.905752 H 21.69225 V 8.855875 H 20.331 l -0.317625,2.087251 h -0.726 L 19.605,8.855875 h -1.497375 l -0.317624,2.087251 h -0.726 l 0.317625,-2.087251 h -0.9075 V 7.993752 h 0.99825 L 17.744626,6.088 h -1.2705 V 5.225875 h 1.406625 L 18.153,3.184 h 0.726 L 18.60675,5.225875 Z M 18.470625,6.088 18.198375,7.993752 H 19.69575 L 19.968,6.088 Z"
   id="text5"
   style="font-size:12px;font-family:'MS UI Gothic';-inkscape-font-specification:'MS UI Gothic';display:inline;fill:#bff4c4;fill-opacity:1;stroke:#bff4c4;stroke-width:0.1;stroke-linecap:round;stroke-linejoin:round;stroke-dasharray:none;stroke-opacity:1"
   aria-label="C#" /></svg>
